<?xml version="1.0" encoding="utf-8"?>
<!-- Generator: Adobe Illustrator 19.0.0, SVG Export Plug-In . SVG Version: 6.00 Build 0)  -->
<svg version="1.1" id="Layer_1" xmlns="http://www.w3.org/2000/svg" xmlns:xlink="http://www.w3.org/1999/xlink" x="0px" y="0px"
	 viewBox="-8174 8174.8 35 35" style="enable-background:new -8174 8174.8 35 35;" xml:space="preserve">
<style type="text/css">
	.st0{fill:#003082;}
	.st1{fill:none;}
	.st2{font-family:'OpenSans';}
	.st3{font-size:10px;}
</style>
<g>
	<g>
		<path class="st0" d="M-8156.5,8202.3c-5.5,0-10-4.5-10-10s4.5-10,10-10s10,4.5,10,10S-8151,8202.3-8156.5,8202.3z M-8156.5,8183.3
			c-5,0-9,4-9,9s4,9,9,9s9-4,9-9S-8151.5,8183.3-8156.5,8183.3z"/>
	</g>
</g>
<g>
	<g>
		<path class="st0" d="M-8153,8196.3c-0.1,0-0.3,0-0.4-0.1l-3.6-3.6v-6.7c0-0.3,0.2-0.5,0.5-0.5s0.5,0.2,0.5,0.5v6.3l3.4,3.4
			c0.2,0.2,0.2,0.5,0,0.7C-8152.7,8196.3-8152.9,8196.3-8153,8196.3z"/>
	</g>
</g>
<rect x="-8147.6" y="8201" class="st1" width="9.6" height="8.8"/>
<text transform="matrix(1 0 0 1 -8147.5669 8208.623)" class="st0 st2 st3">5</text>
</svg>
